<svg id="visual" viewBox="0 0 960 540" width="960" height="540" xmlns="http://www.w3.org/2000/svg" xmlns:xlink="http://www.w3.org/1999/xlink" version="1.1"><rect x="0" y="0" width="960" height="540" fill="#171717"></rect><path d="M0 387L22.8 388.5C45.7 390 91.3 393 137 385.7C182.7 378.3 228.3 360.7 274 358.7C319.7 356.7 365.3 370.3 411.2 375.2C457 380 503 376 548.8 373.8C594.7 371.7 640.3 371.3 686 363.2C731.7 355 777.3 339 823 334.5C868.7 330 914.3 337 937.2 340.5L960 344L960 541L937.2 541C914.3 541 868.7 541 823 541C777.3 541 731.7 541 686 541C640.3 541 594.7 541 548.8 541C503 541 457 541 411.2 541C365.3 541 319.7 541 274 541C228.3 541 182.7 541 137 541C91.3 541 45.7 541 22.8 541L0 541Z" fill="#737373"></path><path d="M0 427L22.8 415C45.7 403 91.3 379 137 379.3C182.7 379.7 228.3 404.3 274 407C319.7 409.7 365.3 390.3 411.2 382.8C457 375.3 503 379.7 548.8 386.5C594.7 393.3 640.3 402.7 686 400.7C731.7 398.7 777.3 385.3 823 387.7C868.7 390 914.3 408 937.2 417L960 426L960 541L937.2 541C914.3 541 868.7 541 823 541C777.3 541 731.7 541 686 541C640.3 541 594.7 541 548.8 541C503 541 457 541 411.2 541C365.3 541 319.7 541 274 541C228.3 541 182.7 541 137 541C91.3 541 45.7 541 22.8 541L0 541Z" fill="#5f5f5f"></path><path d="M0 415L22.8 414.7C45.7 414.3 91.3 413.7 137 420C182.7 426.3 228.3 439.7 274 441.2C319.7 442.7 365.3 432.3 411.2 429.7C457 427 503 432 548.8 429.2C594.7 426.3 640.3 415.7 686 414.5C731.7 413.3 777.3 421.7 823 427.8C868.7 434 914.3 438 937.2 440L960 442L960 541L937.2 541C914.3 541 868.7 541 823 541C777.3 541 731.7 541 686 541C640.3 541 594.7 541 548.8 541C503 541 457 541 411.2 541C365.3 541 319.7 541 274 541C228.3 541 182.7 541 137 541C91.3 541 45.7 541 22.8 541L0 541Z" fill="#4b4b4b"></path><path d="M0 457L22.8 458.5C45.7 460 91.3 463 137 462.2C182.7 461.3 228.3 456.7 274 455.7C319.7 454.7 365.3 457.3 411.2 461C457 464.7 503 469.3 548.8 474C594.7 478.7 640.3 483.3 686 482C731.7 480.7 777.3 473.3 823 471.7C868.7 470 914.3 474 937.2 476L960 478L960 541L937.2 541C914.3 541 868.7 541 823 541C777.3 541 731.7 541 686 541C640.3 541 594.7 541 548.8 541C503 541 457 541 411.2 541C365.3 541 319.7 541 274 541C228.3 541 182.7 541 137 541C91.3 541 45.7 541 22.8 541L0 541Z" fill="#383838"></path><path d="M0 488L22.8 492.5C45.7 497 91.3 506 137 508.8C182.7 511.7 228.3 508.3 274 506.2C319.7 504 365.3 503 411.2 499.8C457 496.7 503 491.3 548.8 488C594.7 484.7 640.3 483.3 686 483C731.7 482.7 777.3 483.3 823 483.3C868.7 483.3 914.3 482.7 937.2 482.3L960 482L960 541L937.2 541C914.3 541 868.7 541 823 541C777.3 541 731.7 541 686 541C640.3 541 594.7 541 548.8 541C503 541 457 541 411.2 541C365.3 541 319.7 541 274 541C228.3 541 182.7 541 137 541C91.3 541 45.7 541 22.8 541L0 541Z" fill="#262626"></path></svg>