<svg id="visual" viewBox="0 0 960 540" width="960" height="540" xmlns="http://www.w3.org/2000/svg" xmlns:xlink="http://www.w3.org/1999/xlink" version="1.1"><rect x="0" y="0" width="960" height="540" fill="#101010"></rect><path d="M0 391L20 390.8C40 390.7 80 390.3 120 387.3C160 384.3 200 378.7 240 377.7C280 376.7 320 380.3 360 385.2C400 390 440 396 480 397.7C520 399.3 560 396.7 600 395.2C640 393.7 680 393.3 720 394C760 394.7 800 396.3 840 391.7C880 387 920 376 940 370.5L960 365L960 541L940 541C920 541 880 541 840 541C800 541 760 541 720 541C680 541 640 541 600 541C560 541 520 541 480 541C440 541 400 541 360 541C320 541 280 541 240 541C200 541 160 541 120 541C80 541 40 541 20 541L0 541Z" fill="#a8a89e"></path><path d="M0 396L20 397.2C40 398.3 80 400.7 120 404.7C160 408.7 200 414.3 240 415.5C280 416.7 320 413.3 360 414.7C400 416 440 422 480 422.2C520 422.3 560 416.7 600 411.3C640 406 680 401 720 398.7C760 396.3 800 396.7 840 397.5C880 398.3 920 399.7 940 400.3L960 401L960 541L940 541C920 541 880 541 840 541C800 541 760 541 720 541C680 541 640 541 600 541C560 541 520 541 480 541C440 541 400 541 360 541C320 541 280 541 240 541C200 541 160 541 120 541C80 541 40 541 20 541L0 541Z" fill="#bdbdb5"></path><path d="M0 439L20 439.2C40 439.3 80 439.7 120 442.3C160 445 200 450 240 451.8C280 453.7 320 452.3 360 447.3C400 442.3 440 433.7 480 432.8C520 432 560 439 600 439.3C640 439.7 680 433.3 720 434.7C760 436 800 445 840 447.7C880 450.3 920 446.7 940 444.8L960 443L960 541L940 541C920 541 880 541 840 541C800 541 760 541 720 541C680 541 640 541 600 541C560 541 520 541 480 541C440 541 400 541 360 541C320 541 280 541 240 541C200 541 160 541 120 541C80 541 40 541 20 541L0 541Z" fill="#d3d3cd"></path><path d="M0 475L20 473.8C40 472.7 80 470.3 120 467.3C160 464.3 200 460.7 240 460.2C280 459.7 320 462.3 360 465C400 467.7 440 470.3 480 473.8C520 477.3 560 481.7 600 479.2C640 476.7 680 467.3 720 464.2C760 461 800 464 840 464.8C880 465.7 920 464.3 940 463.7L960 463L960 541L940 541C920 541 880 541 840 541C800 541 760 541 720 541C680 541 640 541 600 541C560 541 520 541 480 541C440 541 400 541 360 541C320 541 280 541 240 541C200 541 160 541 120 541C80 541 40 541 20 541L0 541Z" fill="#e9e9e6"></path><path d="M0 498L20 497.7C40 497.3 80 496.7 120 496.2C160 495.7 200 495.3 240 494.7C280 494 320 493 360 495.7C400 498.3 440 504.7 480 504.5C520 504.3 560 497.7 600 496.7C640 495.7 680 500.3 720 501.2C760 502 800 499 840 497.5C880 496 920 496 940 496L960 496L960 541L940 541C920 541 880 541 840 541C800 541 760 541 720 541C680 541 640 541 600 541C560 541 520 541 480 541C440 541 400 541 360 541C320 541 280 541 240 541C200 541 160 541 120 541C80 541 40 541 20 541L0 541Z" fill="#ffffff"></path></svg>